<svg xmlns="http://www.w3.org/2000/svg" fill="none" viewBox="0 0 135 134" aria-hidden="true"><g fill="#fff" clip-path="url(#a)"><path d="M32.472 53.466c1.029.782 2.474 1.163 4.416 1.163 1.026 0 2.024-.102 2.905-.19l.316-.032-.09.53c-.387 2.234-.917 5.293.33 7.387l.208.35 3.55-8.688.05-.127-.004-.004 2.349-6.593-14.31 5.99.28.214ZM61.306 32.783l.046.379c.301 2.479 2.67 4.476 4.4 5.935l.245.207c-.142.099-.29.2-.442.304-1.87 1.278-4.431 3.029-5.063 5.383l-.105.394 14.37-5.79-13.45-6.812ZM92.067 43.831l-.21.318c-1.371 2.086-.855 5.143-.477 7.376l.053.319-.53-.055c-.947-.1-2.02-.212-3.102-.212-1.843 0-3.23.34-4.24 1.039l-.334.231 14.7 4.891-5.86-13.907Z"/><path d="M112.434 67.09c0-25.287-20.544-45.86-45.795-45.86-25.252 0-45.795 20.573-45.795 45.86 0 25.286 20.543 45.858 45.794 45.858 25.252 0 45.796-20.572 45.796-45.859ZM66.639 26.86c22.953 0 39.613 16.918 39.613 40.228 0 3.287-.332 6.446-.965 9.448-3.495-.2-10.038-.527-18.871-.752.341-1.447.516-2.928.516-4.422 0-10.804-9.287-19.932-20.279-19.932-10.992 0-20.279 9.128-20.279 19.932 0 1.5.176 2.988.522 4.445-8.897.245-15.48.6-18.977.816a45.631 45.631 0 0 1-.986-9.535c0-23.31 16.699-40.228 39.706-40.228Zm-13.805 48.81a16.891 16.891 0 0 1-.556-4.308c0-9.11 5.508-14.77 14.375-14.77 8.868 0 14.376 5.66 14.376 14.77 0 1.463-.187 2.9-.554 4.295-4.203-.074-8.799-.12-13.729-.12-4.998 0-9.655.051-13.912.132ZM66.64 107.32c-17.803 0-31.827-10.133-37.26-25.517 7.132-.495 22.256-1.4 37.367-1.4 15.03 0 29.831.838 37.095 1.318-5.4 15.43-19.41 25.599-37.202 25.599Z"/><path d="M95.105 87.268c-.43-.062-1.058-.172-1.859-.27-1.6-.22-3.888-.487-6.632-.723a207.856 207.856 0 0 0-9.378-.584c-1.715-.068-3.487-.13-5.289-.158-1.8-.042-3.63-.046-5.46-.056-1.83.01-3.66.017-5.461.06-1.801.03-3.574.088-5.289.16-3.43.14-6.633.346-9.377.583-2.745.235-5.032.502-6.633.72-.8.097-1.43.208-1.858.268-.43.07-.658.11-.658.11s.229.036.658.107c.428.06 1.057.17 1.858.267 1.6.219 3.888.486 6.633.72 2.744.238 5.946.446 9.377.585 1.715.072 3.488.128 5.289.16 1.801.043 3.63.049 5.46.059 1.83-.01 3.66-.014 5.461-.056 1.802-.028 3.574-.09 5.29-.158 3.43-.138 6.632-.346 9.377-.584 2.744-.236 5.031-.503 6.632-.723.801-.097 1.43-.208 1.859-.269l.657-.109-.657-.11ZM10.819 67.089s-3.7-2.81-5.41-2.81C3.839 64.28 0 67.09 0 67.09s4.086 2.81 5.41 2.81c1.214 0 5.409-2.81 5.409-2.81ZM124.18 67.089s4.094 2.81 5.408 2.81c1.372 0 5.41-2.81 5.41-2.81s-4.001-2.81-5.41-2.81c-1.713 0-5.408 2.81-5.408 2.81ZM16.348 92.436l-1.15-2.888-3.849 1.538-1.33-3.337 3.85-1.538-1.151-2.888-9.958 3.979-.104.041 1.15 2.888 3.85-1.538 1.33 3.337-3.85 1.538 1.15 2.888 9.958-3.979.104-.041ZM20.222 102.949a4.748 4.748 0 0 0 .53-2.628c-.08-.897-.393-1.765-.927-2.58-.537-.822-1.21-1.457-1.997-1.888-.791-.433-1.67-.62-2.616-.557-.944.063-1.929.427-2.928 1.083-.994.652-1.717 1.41-2.15 2.25a4.77 4.77 0 0 0-.538 2.628c.077.897.389 1.768.927 2.59.534.816 1.204 1.449 1.993 1.881a4.658 4.658 0 0 0 2.27.573c.115 0 .231-.004.348-.011.944-.061 1.93-.425 2.93-1.081.999-.656 1.725-1.416 2.158-2.26Zm-2.728-1.475c-.264.367-.66.725-1.178 1.065-.517.34-1.003.561-1.445.657-.433.094-.827.071-1.172-.069s-.645-.402-.892-.779c-.247-.379-.367-.759-.358-1.131.01-.372.146-.744.405-1.104.263-.367.66-.725 1.178-1.064.517-.34 1.003-.561 1.444-.657.175-.038.344-.057.504-.057.238 0 .462.042.668.125.345.14.645.403.892.78.248.378.368.758.358 1.13-.01.373-.145.744-.404 1.104ZM24.99 112.937c.627-.125 1.228-.463 1.788-1.006.553-.536.917-1.127 1.08-1.756a3.354 3.354 0 0 0-.072-1.917c-.21-.638-.598-1.253-1.155-1.829l-3.265-3.374-7.78 7.548 2.16 2.233 2.515-2.44.569.588-1.22 3.78 2.356 2.435 1.363-4.375a3.217 3.217 0 0 0 1.661.113Zm-1.058-2.989a.99.99 0 0 1-.61-.105 2.54 2.54 0 0 1-.664-.513l-.628-.65 1.684-1.634.628.65c.224.232.387.463.483.686.091.213.116.424.073.627-.042.203-.166.405-.366.6-.199.192-.4.306-.6.339ZM30.558 110.09l-6.742 8.492 2.43 1.935 6.743-8.492-2.431-1.935ZM40.818 119.125l.035-.015.895-1.501-7.629-4.562-1.305 2.189 4.19 2.506-7.528 3.094-.034.014-.895 1.501 7.628 4.562 1.305-2.188-4.19-2.507 7.528-3.093ZM49.612 121.18c-.599-.672-1.366-1.183-2.28-1.519-.92-.339-1.838-.449-2.727-.324-.892.124-1.71.499-2.432 1.113-.72.613-1.295 1.493-1.708 2.617-.41 1.117-.54 2.157-.388 3.091.153.936.534 1.754 1.131 2.43.596.675 1.365 1.189 2.286 1.528a5.79 5.79 0 0 0 1.998.371c.24 0 .484-.017.722-.05.893-.124 1.713-.498 2.437-1.112.722-.612 1.297-1.492 1.71-2.616.412-1.123.543-2.166.389-3.102a4.743 4.743 0 0 0-1.138-2.427Zm-2.243 4.428c-.214.582-.473 1.049-.77 1.389-.292.334-.622.551-.982.645a1.672 1.672 0 0 1-.42.053c-.24 0-.495-.05-.76-.147-.424-.156-.747-.389-.96-.694-.215-.305-.326-.684-.332-1.128-.007-.452.098-.977.312-1.558.213-.581.472-1.049.77-1.389.291-.334.621-.551.982-.645.135-.035.276-.052.42-.052.24 0 .495.049.76.146.423.156.746.39.96.695.214.305.326.684.332 1.127.007.453-.099.977-.312 1.558ZM58.684 128.168l-2.806-5.931-2.586-.403-1.663 10.72 3.068.477.831-5.358 2.848 5.931 2.545.396 1.663-10.72-3.068-.477-.832 5.365ZM75.71 129.388l-.005.098a1.748 1.748 0 0 1-.12.595 1.448 1.448 0 0 1-.782.796c-.19.086-.414.144-.665.172-.437.051-.829-.011-1.163-.181-.331-.169-.605-.454-.816-.847-.214-.401-.36-.922-.43-1.551-.067-.595-.042-1.12.074-1.56.115-.432.318-.78.604-1.035.286-.254.661-.409 1.116-.46.261-.03.5-.019.711.03.208.049.393.133.55.248.155.116.286.262.387.434.103.174.177.376.222.601l.02.101 3.128-.354-.024-.12c-.131-.661-.36-1.244-.682-1.734a4.13 4.13 0 0 0-1.197-1.203 4.627 4.627 0 0 0-1.6-.646 6.055 6.055 0 0 0-1.904-.066c-.962.109-1.822.422-2.555.931-.736.511-1.297 1.213-1.665 2.086-.369.871-.487 1.916-.353 3.105.134 1.182.477 2.171 1.021 2.941.545.771 1.243 1.333 2.074 1.669.62.251 1.295.378 2.003.378.236 0 .48-.014.724-.042.782-.088 1.466-.289 2.034-.598a4.636 4.636 0 0 0 1.397-1.135c.36-.444.626-.921.794-1.417.167-.498.244-.985.227-1.447l-.004-.12-3.122.331ZM88.675 121.489a4.744 4.744 0 0 0-2.385-1.22c-.883-.163-1.804-.096-2.731.199-.935.297-1.727.774-2.353 1.418a4.729 4.729 0 0 0-1.241 2.373c-.194.926-.11 1.974.252 3.115.36 1.134.893 2.036 1.585 2.68a4.749 4.749 0 0 0 2.381 1.227c.318.06.644.09.97.09.577 0 1.173-.096 1.771-.287.929-.295 1.718-.771 2.346-1.415.63-.646 1.05-1.445 1.246-2.373.196-.927.112-1.976-.25-3.117-.362-1.14-.897-2.046-1.591-2.69Zm-1.587 6.338c-.227.295-.56.513-.99.651-.24.076-.47.114-.685.114-.173 0-.34-.025-.499-.074-.356-.11-.676-.341-.952-.687-.282-.354-.52-.833-.707-1.423-.187-.591-.268-1.119-.242-1.571.026-.442.155-.816.382-1.112.228-.294.56-.513.99-.65.24-.076.47-.114.685-.114.173 0 .34.025.499.074.355.109.675.34.952.687.282.354.52.833.707 1.423.187.591.269 1.12.242 1.57-.026.443-.155.818-.382 1.112ZM96.918 114.393l.891 6.408-5.128-3.935-3.26 1.902 5.455 9.373 2.629-1.534-2.97-5.105 4.877 3.896 1.601-.934-.96-6.136 2.95 5.07 2.629-1.534-5.454-9.373-3.26 1.902ZM107.644 105.426l2.438 5.991-5.868-2.52-.069-.03-2.692 2.647 7.59 7.741 2.171-2.135-4.133-4.216 5.684 2.574 1.322-1.3-2.438-5.712 4.106 4.188 2.171-2.134-7.59-7.741-2.692 2.647ZM122.104 97.298l-5.804-3.752-1.684 2.612 5.595 3.617c.258.167.453.375.581.618.127.242.184.502.168.774a1.65 1.65 0 0 1-.276.805 1.668 1.668 0 0 1-.618.581 1.433 1.433 0 0 1-.775.167 1.652 1.652 0 0 1-.801-.275l-5.595-3.617-1.684 2.611 5.804 3.753c.692.447 1.406.674 2.124.674h.008c.72-.001 1.417-.212 2.073-.626.652-.412 1.238-1.016 1.741-1.796.499-.775.806-1.555.912-2.319.107-.769.013-1.494-.281-2.154-.293-.661-.794-1.224-1.488-1.673ZM119.345 86.284l5.041 2.001-6.398 1.426-.965 2.437 10.071 3.998 1.144-2.89-5.034-1.999 6.407-1.468.949-2.397-10.07-3.998-1.145 2.89ZM4.802 48.042c.602.728 1.473 1.315 2.59 1.744.85.327 1.662.493 2.409.493.226 0 .45-.015.667-.045.935-.13 1.755-.49 2.434-1.074.678-.581 1.201-1.344 1.555-2.268.283-.737.42-1.438.407-2.084a4.633 4.633 0 0 0-.362-1.764 4.57 4.57 0 0 0-.89-1.359 4.065 4.065 0 0 0-1.177-.869l-.108-.051-1.146 2.927.085.048c.188.106.346.235.472.381a1.45 1.45 0 0 1 .346 1.062 2.247 2.247 0 0 1-.155.67c-.158.414-.393.733-.696.95-.303.217-.683.33-1.127.335h-.037c-.444 0-.96-.111-1.536-.332-.558-.215-1.012-.479-1.348-.785-.33-.3-.545-.642-.638-1.014-.094-.37-.058-.776.106-1.203a2.1 2.1 0 0 1 .354-.618c.14-.163.3-.289.473-.374a1.46 1.46 0 0 1 .563-.145c.2-.012.415.016.636.08l.099.028 1.127-2.942-.117-.034c-.647-.188-1.27-.254-1.851-.193a4.113 4.113 0 0 0-1.618.51c-.49.276-.93.655-1.31 1.124a6.112 6.112 0 0 0-.936 1.661c-.347.905-.465 1.813-.352 2.7.114.89.477 1.712 1.08 2.441ZM11.964 38.398c1 .642 1.987.993 2.931 1.045.1.006.2.009.3.009.83 0 1.608-.2 2.313-.591.786-.438 1.453-1.08 1.982-1.907.525-.821.827-1.693.899-2.591a4.749 4.749 0 0 0-.56-2.622c-.44-.838-1.175-1.59-2.183-2.236-1.006-.644-1.995-.997-2.94-1.048a4.727 4.727 0 0 0-2.613.59c-.784.44-1.447 1.081-1.972 1.903-.529.828-.833 1.702-.904 2.597-.07.9.119 1.78.563 2.619.442.836 1.177 1.587 2.184 2.232Zm.458-5.974c.243-.38.54-.645.884-.789.211-.088.443-.134.688-.134.154 0 .316.018.483.053.442.09.93.306 1.452.64.52.334.92.687 1.19 1.052.262.357.402.727.415 1.099.014.373-.102.754-.345 1.134-.243.38-.54.646-.884.79-.343.144-.737.17-1.17.081-.443-.09-.932-.306-1.453-.64-.521-.335-.921-.689-1.19-1.052-.262-.357-.402-.727-.416-1.099-.014-.372.103-.754.346-1.134ZM24.904 29.46l-4.153-4.197 5.697 2.547 1.316-1.306-2.465-5.7 4.125 4.17 2.161-2.146-7.626-7.705-2.679 2.659 2.466 5.98-5.95-2.523-2.679 2.66 7.626 7.705 2.161-2.145ZM35.475 20.3l-2.994-5.092 4.896 3.873 1.596-.941-.989-6.132 2.975 5.057 2.621-1.547-5.498-9.347-3.25 1.917.92 6.403-5.146-3.91-3.25 1.917 5.498 9.347 2.621-1.546ZM44.443 12.73a4.756 4.756 0 0 0 2.383 1.222c.315.059.636.088.957.088.582 0 1.182-.097 1.784-.29.928-.298 1.716-.776 2.342-1.421a4.745 4.745 0 0 0 1.24-2.377c.194-.927.108-1.976-.257-3.115-.364-1.14-.9-2.044-1.597-2.687-.697-.644-1.5-1.053-2.387-1.214-.885-.162-1.804-.093-2.731.205-.934.299-1.725.778-2.35 1.423-.627.647-1.043 1.446-1.236 2.375-.192.927-.105 1.975.26 3.115.363 1.134.898 2.034 1.592 2.677ZM46.02 6.4c.227-.296.56-.515.989-.653.24-.077.472-.116.688-.116.172 0 .338.025.495.073.356.109.677.339.954.685.283.353.521.831.71 1.421.189.59.271 1.119.246 1.57-.025.443-.153.817-.38 1.113-.226.295-.559.515-.988.653-.43.137-.828.152-1.184.043-.356-.11-.677-.34-.954-.686-.282-.353-.52-.83-.71-1.421-.188-.59-.27-1.119-.245-1.57.025-.443.152-.816.38-1.112ZM58.698 11.485l-.605-5.388 4.305 4.972 2.56-.289L63.747 0l-3.086.348.605 5.395L57.003.759l-2.6.293 1.21 10.781 3.085-.348ZM74.788 7.325l3.54.589-.68 4.094 3.064.508 1.773-10.701-3.063-.51-.678 4.094-3.54-.588.68-4.094L72.82.208 71.047 10.91l3.063.51.678-4.095ZM84.353 13.224c.586.682 1.349 1.206 2.265 1.558.689.264 1.383.399 2.062.399.217 0 .437-.014.653-.042.895-.111 1.72-.474 2.452-1.078.73-.602 1.317-1.475 1.745-2.592.427-1.118.573-2.16.43-3.096a4.749 4.749 0 0 0-1.104-2.444c-.59-.679-1.35-1.2-2.26-1.55-.916-.35-1.832-.472-2.722-.36-.894.112-1.717.476-2.447 1.08-.73.603-1.315 1.476-1.743 2.593-.425 1.112-.57 2.15-.43 3.086a4.76 4.76 0 0 0 1.099 2.446Zm2.308-4.39c.22-.578.486-1.042.788-1.379.296-.33.63-.542.99-.63.129-.031.263-.047.398-.047.246 0 .51.052.782.156.42.162.74.4.95.708.21.308.316.689.317 1.132 0 .453-.112.976-.334 1.554-.22.577-.486 1.041-.788 1.379-.296.33-.63.541-.99.63-.362.089-.758.052-1.18-.11-.421-.161-.741-.4-.95-.707-.21-.308-.317-.69-.317-1.132 0-.452.112-.975.334-1.554ZM95.187 18.76l1.85-2.977.694.432-.27 3.963 2.874 1.791.266-4.576c.093.007.185.01.276.01.48 0 .938-.1 1.362-.301.579-.274 1.081-.748 1.492-1.41.407-.654.617-1.316.623-1.965a3.36 3.36 0 0 0-.532-1.843c-.358-.568-.884-1.071-1.564-1.495l-3.983-2.482-5.724 9.21 2.636 1.643Zm4.39-7.063.767.477c.273.17.487.355.634.548.142.188.215.381.223.592.008.207-.063.433-.211.67-.145.235-.314.394-.5.475a.984.984 0 0 1-.616.046 2.523 2.523 0 0 1-.769-.337l-.767-.478 1.239-1.993ZM103.591 24.853l6.917-8.35-2.39-1.984-6.917 8.349 2.39 1.985ZM106.221 24.65l-.038.004-1.285 1.182 6.012 6.552 1.874-1.724-3.302-3.6 8.097-.814.037-.004 1.286-1.183-6.012-6.551-1.875 1.724 3.303 3.6-8.097.814ZM113.804 32.242a4.766 4.766 0 0 0-.595 2.614c.058.899.351 1.777.871 2.61.516.827 1.172 1.475 1.952 1.925a4.686 4.686 0 0 0 2.373.623c.076 0 .154-.002.232-.005.946-.04 1.939-.383 2.952-1.017 1.014-.634 1.756-1.377 2.207-2.211a4.748 4.748 0 0 0 .588-2.616c-.062-.898-.355-1.773-.871-2.6-.52-.834-1.178-1.483-1.956-1.931-.781-.45-1.654-.656-2.603-.614-.944.041-1.937.384-2.951 1.019-1.008.63-1.748 1.371-2.199 2.203Zm2.687 1.543c.272-.361.676-.71 1.201-1.04.524-.327 1.015-.537 1.459-.624.159-.031.314-.047.46-.047.254 0 .493.047.71.14.342.148.636.417.875.8.239.383.351.766.333 1.138-.017.372-.162.74-.428 1.095-.273.362-.677.711-1.201 1.038-.524.328-1.015.539-1.459.626-.435.084-.828.053-1.17-.094-.341-.148-.635-.416-.875-.8-.239-.383-.351-.766-.333-1.137.017-.373.162-.742.428-1.095ZM117.422 42.86l1.096 2.908 5.066-1.915-3.75 5.404.909 2.412 10.03-3.792.105-.04-1.096-2.908-5.073 1.917 3.772-5.367-.924-2.452-10.03 3.793-.105.04Z"/></g><defs><clipPath id="a"><path fill="#fff" d="M0 0h135v134H0z"/></clipPath></defs></svg>
