<svg xmlns="http://www.w3.org/2000/svg" fill="none" viewBox="0 0 224 60" aria-hidden="true" role="presentation"><g fill="#fff" clip-path="url(#a)"><path d="M90.602 21.088c.68.512 1.636.76 2.92.76.68 0 1.34-.065 1.922-.123l.21-.02-.061.346c-.255 1.46-.606 3.462.219 4.832l.138.23 2.347-5.685.034-.083-.004-.002 1.554-4.314-9.465 3.92.186.14ZM109.673 7.558l.03.247c.199 1.623 1.766 2.929 2.91 3.883l.163.136-.293.198c-1.237.837-2.931 1.982-3.348 3.522l-.071.258 9.506-3.788-8.897-4.456ZM130.021 14.785l-.139.208c-.907 1.364-.565 3.364-.315 4.825l.035.208-.351-.036c-.626-.064-1.336-.138-2.052-.138-1.219 0-2.136.222-2.804.679l-.221.152 9.723 3.2-3.876-9.098Z"/><path d="M113.2 0C96.498 0 82.91 13.458 82.91 30S96.498 60 113.2 60c16.702 0 30.29-13.458 30.29-30S129.901 0 113.2 0Zm0 3.683c15.181 0 26.201 11.069 26.201 26.317 0 2.15-.22 4.216-.638 6.18a402.71 402.71 0 0 0-12.482-.492c.226-.947.341-1.915.341-2.892 0-7.068-6.142-13.04-13.413-13.04-7.27 0-13.412 5.972-13.412 13.04 0 .98.116 1.954.345 2.907-5.885.16-10.24.393-12.552.534A29.53 29.53 0 0 1 86.938 30c0-15.248 11.044-26.317 26.262-26.317Zm-9.131 31.93a10.955 10.955 0 0 1-.368-2.817c0-5.96 3.644-9.662 9.508-9.662 5.865 0 9.508 3.702 9.508 9.662 0 .956-.123 1.897-.366 2.809-2.78-.048-5.82-.078-9.08-.078-3.306 0-6.387.033-9.202.086Zm9.131 20.705c-11.776 0-21.051-6.63-24.645-16.693 4.717-.323 14.721-.916 24.715-.916 9.941 0 19.732.548 24.536.863-3.572 10.093-12.838 16.745-24.606 16.745Z"/><path d="M132.03 43.2c-.284-.04-.7-.112-1.229-.175a90.24 90.24 0 0 0-4.387-.474 137.996 137.996 0 0 0-6.203-.382 145.904 145.904 0 0 0-3.498-.103c-1.191-.028-2.401-.03-3.611-.037-1.211.007-2.421.01-3.612.038-1.191.021-2.364.059-3.498.106-2.27.09-4.387.227-6.203.381a91.274 91.274 0 0 0-4.387.472c-.53.063-.945.135-1.229.175l-.435.07.435.072c.284.04.7.112 1.23.175 1.058.143 2.57.318 4.386.471 1.816.155 3.933.29 6.203.382 1.134.047 2.307.084 3.498.105 1.191.028 2.401.031 3.612.039 1.21-.007 2.42-.01 3.611-.038 1.191-.018 2.364-.058 3.498-.103 2.27-.09 4.387-.226 6.203-.382a90.452 90.452 0 0 0 4.387-.473c.529-.063.945-.136 1.229-.176l.435-.071-.435-.072ZM8.217 26.946a4.686 4.686 0 0 0 1.534-.971c.412-.401.735-.845.96-1.32.225-.476.357-.95.393-1.41l.001-.024-3.041-.022h-.02l-.003.02c-.035.23-.104.438-.203.62a1.577 1.577 0 0 1-.947.762c-.214.068-.46.102-.73.102-.475 0-.887-.111-1.224-.332-.336-.22-.597-.556-.774-.996-.178-.442-.269-1-.269-1.657 0-.623.089-1.163.264-1.607.174-.442.433-.786.772-1.023.339-.236.76-.356 1.252-.356.281 0 .536.04.757.118.22.078.41.19.567.334.155.144.28.317.369.514.09.198.145.422.166.666l.002.02h3.063l-.002-.024c-.057-.675-.222-1.282-.49-1.805a4.133 4.133 0 0 0-1.064-1.328 4.683 4.683 0 0 0-1.537-.823 6.249 6.249 0 0 0-1.917-.282c-.983 0-1.887.216-2.685.641-.799.426-1.443 1.061-1.913 1.89-.47.827-.709 1.859-.709 3.065 0 1.199.234 2.227.696 3.057.461.83 1.1 1.467 1.897 1.895.796.427 1.71.643 2.714.643.801 0 1.515-.123 2.12-.367ZM20.568 26.672a4.774 4.774 0 0 0 1.93-1.89c.473-.827.713-1.858.713-3.064s-.24-2.238-.714-3.065a4.777 4.777 0 0 0-1.929-1.89c-.806-.425-1.716-.64-2.706-.64-.998 0-1.911.215-2.715.64a4.76 4.76 0 0 0-1.924 1.89c-.472.827-.711 1.859-.711 3.065 0 1.199.24 2.227.711 3.054a4.795 4.795 0 0 0 1.924 1.895c.804.429 1.717.646 2.715.646.99 0 1.9-.215 2.706-.64Zm-4.693-6.59c.17-.44.425-.78.757-1.007.331-.227.745-.343 1.23-.343s.899.116 1.23.343c.331.228.586.566.756 1.006.172.442.258.993.258 1.637s-.087 1.194-.258 1.637c-.17.44-.425.778-.756 1.006-.331.227-.745.343-1.23.343s-.9-.116-1.23-.343c-.332-.228-.586-.566-.757-1.006-.17-.442-.258-.993-.258-1.637s.087-1.195.258-1.637ZM30.127 27.08h1.786l2.438-6.187h.047v6.272h2.955V16.27h-3.74l-2.545 6.145h-.097l-2.54-6.13-.006-.015h-3.74v10.895h2.956v-6.314h.047l2.433 6.215.006.014ZM44.31 27.08h1.786l2.439-6.187h.046v6.272h2.956V16.27h-3.74l-2.545 6.145h-.098l-2.54-6.13-.005-.015h-3.74v10.895h2.956v-6.314h.046l2.433 6.215.006.014ZM61.068 16.763c-.805-.425-1.716-.64-2.706-.64-.998 0-1.911.215-2.715.64a4.76 4.76 0 0 0-1.924 1.89c-.472.827-.711 1.859-.711 3.065 0 1.199.24 2.227.711 3.054a4.795 4.795 0 0 0 1.924 1.895c.804.429 1.717.646 2.715.646.99 0 1.9-.215 2.706-.64a4.774 4.774 0 0 0 1.93-1.89c.473-.828.714-1.86.714-3.065 0-1.206-.24-2.238-.715-3.065a4.775 4.775 0 0 0-1.929-1.89Zm-.72 6.591c-.17.44-.425.78-.756 1.006-.331.228-.745.343-1.23.343s-.9-.115-1.23-.343c-.332-.227-.587-.566-.757-1.006-.171-.442-.258-.992-.258-1.636 0-.645.087-1.195.258-1.637.17-.44.425-.779.756-1.006.332-.228.746-.343 1.23-.343.485 0 .9.115 1.23.343.332.227.587.566.757 1.006.171.442.258.993.258 1.637s-.087 1.194-.258 1.636ZM71.687 16.27v5.679h-.05l-3.894-5.679h-2.56v10.895h3.02v-5.7h.03l3.95 5.69.007.01h2.517V16.27h-3.02ZM11.548 35.23h-3.89v-4.237h-3.02v10.894h3.02V37.65h3.89v4.238h3.02V30.993h-3.02v4.237ZM24.097 31.485c-.805-.425-1.716-.64-2.706-.64-.998 0-1.91.215-2.715.64a4.76 4.76 0 0 0-1.923 1.89c-.473.828-.712 1.86-.712 3.065 0 1.2.24 2.227.712 3.055a4.795 4.795 0 0 0 1.923 1.894c.804.43 1.717.647 2.715.647.99 0 1.9-.216 2.706-.641a4.776 4.776 0 0 0 1.93-1.89c.474-.827.714-1.859.714-3.065 0-1.205-.24-2.237-.714-3.065a4.775 4.775 0 0 0-1.93-1.89Zm-.72 6.592c-.17.44-.424.779-.756 1.006-.332.228-.745.343-1.23.343s-.899-.115-1.23-.343c-.332-.227-.586-.566-.757-1.006-.17-.442-.258-.993-.258-1.637s.087-1.194.258-1.636c.17-.44.425-.78.757-1.007.331-.227.745-.343 1.23-.343s.898.116 1.23.343c.332.228.586.566.757 1.007.17.442.257.992.257 1.636 0 .644-.086 1.195-.258 1.637ZM36.528 36.68c.349-.534.526-1.2.526-1.977 0-.77-.173-1.441-.512-1.994a3.354 3.354 0 0 0-1.432-1.274c-.61-.294-1.332-.442-2.144-.442h-4.751v10.894h3.02v-3.58h.992l1.916 3.568.007.012h3.283l-2.232-4.058a3.234 3.234 0 0 0 1.327-1.149Zm-5.293-3.29h1.025c.345 0 .643.047.887.14.242.091.431.234.562.425.13.191.196.443.196.748 0 .3-.066.547-.196.733-.13.186-.32.323-.561.408a2.714 2.714 0 0 1-.888.128h-1.025v-2.581ZM41.44 30.993h-3.02v10.894h3.02V30.993ZM43.02 33.412h5.132l-5.15 6.807-.004.006v1.662h8.989v-2.419h-5.133l5.15-6.807.004-.006v-1.662h-8.989v2.419ZM61.068 31.485c-.805-.425-1.716-.64-2.706-.64-.998 0-1.911.215-2.715.64a4.76 4.76 0 0 0-1.924 1.89c-.472.828-.711 1.86-.711 3.065 0 1.2.24 2.227.711 3.055a4.795 4.795 0 0 0 1.924 1.894c.804.43 1.717.647 2.715.647.99 0 1.9-.216 2.706-.641a4.776 4.776 0 0 0 1.93-1.89c.473-.827.714-1.859.714-3.065 0-1.205-.24-2.237-.715-3.065a4.776 4.776 0 0 0-1.929-1.89Zm-.72 6.592c-.17.44-.425.779-.756 1.006-.332.228-.746.343-1.23.343-.485 0-.899-.115-1.23-.343-.332-.227-.587-.566-.757-1.006-.171-.442-.258-.993-.258-1.637s.087-1.194.258-1.636c.17-.44.425-.78.756-1.007.332-.227.746-.343 1.23-.343.485 0 .9.116 1.23.343.332.228.587.566.757 1.007.171.442.258.992.258 1.636 0 .644-.087 1.195-.258 1.637ZM71.687 36.671h-.05l-3.894-5.678h-2.56v10.894h3.02v-5.7h.03l3.95 5.69.007.01h2.517V30.993h-3.02v5.678ZM157.931 20.557h-3.89v-4.238h-3.02v10.894h3.02v-4.237h3.89v4.237h3.02V16.32h-3.02v4.238ZM170.482 16.811c-.806-.425-1.716-.64-2.706-.64-.998 0-1.911.215-2.715.64a4.766 4.766 0 0 0-1.924 1.89c-.472.828-.711 1.859-.711 3.065 0 1.2.239 2.227.711 3.055a4.8 4.8 0 0 0 1.924 1.894c.804.43 1.717.647 2.715.647.99 0 1.901-.216 2.706-.641a4.772 4.772 0 0 0 1.929-1.89c.475-.828.715-1.859.715-3.065s-.24-2.237-.715-3.065a4.772 4.772 0 0 0-1.929-1.89Zm-.72 6.591c-.171.44-.425.78-.756 1.007-.332.227-.746.343-1.23.343-.485 0-.899-.116-1.23-.343-.332-.227-.586-.566-.757-1.007-.171-.441-.258-.992-.258-1.636 0-.644.087-1.195.258-1.637.171-.44.425-.779.757-1.006.331-.228.745-.343 1.23-.343.484 0 .898.115 1.23.343.331.228.585.566.756 1.006.171.442.258.993.258 1.637s-.087 1.195-.258 1.636ZM177.618 23.632h.992l1.916 3.569.007.012h3.283l-2.231-4.056a3.228 3.228 0 0 0 1.326-1.15c.349-.535.525-1.2.525-1.978 0-.771-.172-1.442-.511-1.993a3.358 3.358 0 0 0-1.432-1.275c-.61-.293-1.332-.442-2.144-.442h-4.751v10.894h3.02v-3.58Zm0-4.915h1.025c.345 0 .643.046.887.139.242.09.431.234.562.425.13.191.196.443.196.747 0 .302-.066.549-.196.734a1.116 1.116 0 0 1-.561.407 2.72 2.72 0 0 1-.888.129h-1.026l.001-2.581ZM187.823 16.319h-3.02v10.894h3.02V16.32ZM198.372 24.794h-5.133l5.149-6.807.005-.006v-1.662h-8.989v2.419h5.133l-5.15 6.807-.004.006v1.662h8.989v-2.419ZM207.451 26.72a4.772 4.772 0 0 0 1.929-1.889c.474-.828.714-1.859.714-3.065s-.24-2.237-.714-3.065a4.773 4.773 0 0 0-1.929-1.89c-.806-.425-1.716-.64-2.707-.64-.997 0-1.91.215-2.714.64a4.76 4.76 0 0 0-1.924 1.89c-.472.828-.711 1.859-.711 3.065 0 1.2.239 2.227.711 3.055a4.794 4.794 0 0 0 1.924 1.894c.804.43 1.717.647 2.714.647.991 0 1.901-.216 2.707-.641Zm-4.693-6.59c.17-.44.425-.78.756-1.007.331-.227.745-.343 1.23-.343s.899.116 1.23.343c.332.228.586.566.756 1.007.172.441.259.992.259 1.636 0 .645-.087 1.195-.259 1.637-.17.44-.424.779-.756 1.006-.331.228-.745.343-1.23.343s-.899-.115-1.23-.343c-.331-.227-.586-.566-.756-1.006-.171-.442-.258-.993-.258-1.637s.087-1.194.258-1.636ZM214.588 21.514h.029l3.951 5.69.007.01h2.517V16.318h-3.02v5.678h-.05l-3.894-5.678h-2.56v10.894h3.02v-5.7ZM154.368 33.858c.339-.236.76-.356 1.251-.356.281 0 .536.04.757.118.221.078.412.19.567.334.156.144.28.317.369.515.089.198.145.422.166.665l.003.02h3.062l-.002-.024c-.057-.674-.221-1.282-.489-1.805a4.143 4.143 0 0 0-1.065-1.329 4.689 4.689 0 0 0-1.537-.822 6.258 6.258 0 0 0-1.916-.282c-.984 0-1.887.216-2.685.641-.799.426-1.443 1.061-1.914 1.89-.47.827-.708 1.859-.708 3.065 0 1.199.234 2.227.695 3.057.462.83 1.1 1.467 1.897 1.895.796.426 1.71.643 2.715.643.801 0 1.514-.123 2.121-.367a4.695 4.695 0 0 0 1.535-.972c.411-.4.734-.844.959-1.32.224-.475.357-.949.392-1.409l.002-.025-3.041-.02-.02-.001-.003.02c-.035.23-.104.438-.204.62-.099.182-.23.339-.387.467a1.686 1.686 0 0 1-.559.295c-.214.068-.46.102-.731.102-.475 0-.887-.112-1.223-.332-.336-.22-.597-.556-.775-.996-.178-.442-.268-1-.268-1.658 0-.622.089-1.163.263-1.607.174-.441.434-.785.773-1.022ZM169.63 31.534c-.805-.426-1.716-.641-2.706-.641-.997 0-1.911.215-2.714.64a4.76 4.76 0 0 0-1.924 1.89c-.472.828-.712 1.86-.712 3.065 0 1.2.24 2.227.712 3.055a4.8 4.8 0 0 0 1.924 1.895c.803.428 1.716.646 2.714.646.991 0 1.902-.216 2.707-.64a4.772 4.772 0 0 0 1.929-1.89c.474-.829.714-1.86.714-3.066 0-1.206-.24-2.237-.714-3.065a4.776 4.776 0 0 0-1.93-1.89Zm-.719 6.59c-.171.441-.426.78-.757 1.007-.331.227-.745.343-1.23.343s-.899-.116-1.23-.343c-.332-.227-.586-.566-.756-1.007-.172-.441-.258-.992-.258-1.636 0-.644.086-1.195.258-1.637.17-.44.424-.779.756-1.006.331-.228.745-.343 1.23-.343s.899.115 1.23.343c.331.227.586.566.757 1.006.171.442.258.993.258 1.637s-.087 1.195-.258 1.636ZM180.129 37.186h-.097l-2.54-6.13-.006-.015h-3.74v10.894h2.956v-6.314h.046l2.433 6.215.006.015h1.786l2.439-6.188h.046v6.273h2.956V31.04h-3.74l-2.545 6.145ZM194.314 37.186h-.097l-2.54-6.13-.006-.015h-3.739v10.894h2.956v-6.314h.046l2.433 6.215.006.015h1.785l2.439-6.188h.047v6.273h2.956V31.04h-3.74l-2.546 6.145ZM208.597 37.76c0 .33-.074.628-.222.886a1.581 1.581 0 0 1-.611.608c-.259.146-.561.22-.898.22-.333 0-.634-.074-.895-.22a1.584 1.584 0 0 1-.614-.608 1.77 1.77 0 0 1-.222-.887v-6.718h-3.02v6.973c0 .827.2 1.552.595 2.155.395.603.955 1.075 1.665 1.401.709.327 1.547.492 2.491.492.937 0 1.772-.165 2.481-.492.71-.326 1.272-.798 1.67-1.401.398-.603.6-1.328.6-2.155V31.04h-3.02v6.718ZM219.636 31.041v5.679h-.05l-3.893-5.679h-2.56v10.894h3.02v-5.7h.029l3.95 5.69.007.01h2.517V31.041h-3.02Z"/></g><defs><clipPath id="a"><path fill="#fff" d="M0 0h223.784v60H0z"/></clipPath></defs></svg>
